<svg xmlns="http://www.w3.org/2000/svg" width="24" height="24" viewBox="0 0 24 24">
<symbol id="archive" viewBox="0 0 24 24"><path d="M2.688 6l-.688-2h20l-.604 2h-18.708zm17.541-4l.739-2h-17.968l.792 2h16.437zm2.162 8l.609-2h-22l.609 2h20.782zm-.752 4l-1.333 8h-16.612l-1.333-8h3.639l2.25 3h7.5l2.25-3h3.639zm2.361-2h-7l-2.25 3h-5.5l-2.25-3h-7l2 12h20l2-12z"/></symbol>
<symbol id="delete" viewBox="0 0 24 24"><path d="M12 2c5.514 0 10 4.486 10 10s-4.486 10-10 10-10-4.486-10-10 4.486-10 10-10zm0-2c-6.627 0-12 5.373-12 12s5.373 12 12 12 12-5.373 12-12-5.373-12-12-12zm5 15.538l-3.592-3.548 3.546-3.587-1.416-1.403-3.545 3.589-3.588-3.543-1.405 1.405 3.593 3.552-3.547 3.592 1.405 1.405 3.555-3.596 3.591 3.55 1.403-1.416z"/></symbol>
<symbol id="download" viewBox="0 0 24 24"><path d="M12 24c6.627 0 12-5.373 12-12s-5.373-12-12-12-12 5.373-12 12 5.373 12 12 12zm0-22c5.514 0 10 4.486 10 10s-4.486 10-10 10-10-4.486-10-10 4.486-10 10-10zm2 14h-4v-1h4v1zm0 1v1h-4v-1h4zm-4-6h-4l6-6 6 6h-4v3h-4v-3z"/></symbol>
<symbol id="frame" viewBox="0 0 24 24"><path d="M22 4v16h-20v-16h20zm2-2h-24v20h24v-20zm-5 13.092v-6.184c.581-.207 1-.756 1-1.408 0-.828-.672-1.5-1.5-1.5-.652 0-1.201.419-1.408 1h-10.184c-.207-.581-.756-1-1.408-1-.828 0-1.5.672-1.5 1.5 0 .652.419 1.201 1 1.408v6.184c-.581.207-1 .756-1 1.408 0 .828.672 1.5 1.5 1.5.652 0 1.201-.419 1.408-1h10.184c.207.581.756 1 1.408 1 .828 0 1.5-.672 1.5-1.5 0-.652-.419-1.201-1-1.408zm-1.908.908h-10.184c-.15-.424-.484-.757-.908-.908v-6.184c.424-.151.757-.484.908-.908h10.184c.151.424.484.757.908.908v6.184c-.424.151-.758.484-.908.908zm-9.092-6c0-.552.448-1 1-1s1 .448 1 1-.448 1-1 1-1-.448-1-1zm8 5l-2.75-5-1.891 2.984-1.359-1.312-2 3.328h8z"/></symbol>
<symbol id="eye" viewBox="0 0 24 24"><path d="M12.015 7c4.751 0 8.063 3.012 9.504 4.636-1.401 1.837-4.713 5.364-9.504 5.364-4.42 0-7.93-3.536-9.478-5.407 1.493-1.647 4.817-4.593 9.478-4.593zm0-2c-7.569 0-12.015 6.551-12.015 6.551s4.835 7.449 12.015 7.449c7.733 0 11.985-7.449 11.985-7.449s-4.291-6.551-11.985-6.551zm-.015 3c-2.21 0-4 1.791-4 4s1.79 4 4 4c2.209 0 4-1.791 4-4s-1.791-4-4-4zm-.004 3.999c-.564.564-1.479.564-2.044 0s-.565-1.48 0-2.044c.564-.564 1.479-.564 2.044 0s.565 1.479 0 2.044z"/></symbol>
<symbol id="files" viewBox="0 0 24 24"><path d="M6 22v-16h16v7.543c0 4.107-6 2.457-6 2.457s1.518 6-2.638 6h-7.362zm18-7.614v-10.386h-20v20h10.189c3.163 0 9.811-7.223 9.811-9.614zm-10 1.614h-5v-1h5v1zm5-4h-10v1h10v-1zm0-3h-10v1h10v-1zm3-6h-19v19h-1v-20h20v1zm-2-2h-19v19h-1v-20h20v1z"/></symbol>
<symbol id="help_4" viewBox="0 0 24 24"><path d="M12 0c-6.627 0-12 5.373-12 12s5.373 12 12 12 12-5.373 12-12-5.373-12-12-12zm0 22c-5.514 0-10-4.486-10-10s4.486-10 10-10 10 4.486 10 10-4.486 10-10 10zm0-18.8c-4.853 0-8.8 3.947-8.8 8.8s3.947 8.8 8.8 8.8 8.8-3.947 8.8-8.8-3.947-8.8-8.8-8.8zm0 15.05c-.689 0-1.25-.56-1.25-1.25s.561-1.25 1.25-1.25c.691 0 1.25.56 1.25 1.25s-.559 1.25-1.25 1.25zm1.961-5.928c-.904.975-.947 1.514-.935 2.178h-2.005c-.007-1.475.02-2.125 1.432-3.468.572-.544 1.024-.975.962-1.821-.058-.805-.73-1.226-1.364-1.226-.709 0-1.538.527-1.538 2.013h-2.011c0-2.4 1.41-3.95 3.59-3.95 1.036 0 1.942.339 2.551.955.57.578.865 1.372.854 2.298-.018 1.383-.859 2.291-1.536 3.021z"/></symbol>
<symbol id="home" viewBox="0 0 24 24"><path d="M20 7.093v-5.093h-3v2.093l3 3zm4 5.907l-12-12-12 12h3v10h7v-5h4v5h7v-10h3zm-5 8h-3v-5h-8v5h-3v-10.26l7-6.912 7 6.99v10.182z"/></symbol>
<symbol id="map_6" viewBox="0 0 24 24"><path d="M24 22.586l-2.823-2.823c.526-.792.836-1.74.836-2.763 0-2.762-2.238-5-5-5s-5 2.238-5 5 2.238 5 5 5c1.016 0 1.957-.307 2.746-.827l2.827 2.827 1.414-1.414zm-9.987-5.586c0-1.654 1.346-3 3-3s3 1.346 3 3-1.346 3-3 3-3-1.346-3-3zm-4 0l.002-.034-3.015 2.175v-13.068l4-2.886v10.247c.508-.854 1.189-1.591 2-2.161v-8.086l4 2.886v3.927h.013c.336 0 .664.032.987.078v-4.007l4-2.479v8.504c1.188 1.208 1.936 2.844 2 4.653v-16.749l-6.455 4-5.545-4-5.545 4-6.455-4v18l6.455 4 3.91-2.82c-.226-.687-.352-1.419-.352-2.18zm-4.013 2.365l-4-2.479v-13.294l4 2.479v13.294z"/></symbol>
<symbol id="map_10" viewBox="0 0 24 24"><path d="M6.57 13.41c-.373 0-.741-.066-1.093-.195l.407-1.105c.221.081.451.122.686.122.26 0 .514-.05.754-.148l.447 1.09c-.382.157-.786.236-1.201.236zm8.67-.783l-1.659-.945.583-1.024 1.66.945-.584 1.024zm-6.455-.02l-.605-1.011 1.639-.981.605 1.011-1.639.981zm3.918-1.408c-.243-.101-.5-.153-.764-.153-.23 0-.457.04-.674.119l-.401-1.108c.346-.125.708-.188 1.075-.189.42 0 .83.082 1.217.244l-.453 1.087zm-8.734-.163c-.535 0-.969.433-.969.968 0 .535.434.968.969.968.535 0 .969-.434.969-.968-.001-.535-.434-.968-.969-.968zm13.576-7.036l-5.545-4-5.545 4-6.455-4v20l6.455 4 5.545-4 5.545 4 6.455-4v-20l-6.455 4zm4.455 14.887l-4 2.479v-4.366h-1v4.141l-4-2.885v-4.256h-2v4.255l-4 2.885v-5.14h-1v5.365l-4-2.479v-15.294l4 2.479v2.929h1v-2.927l4-2.886v3.813h2v-3.813l4 2.886v1.927h1v-1.929l4-2.479v15.295zm-1.328-4.871l-1.296-1.274 1.273-1.293-.708-.702-1.272 1.295-1.294-1.272-.703.702 1.296 1.276-1.273 1.296.703.703 1.277-1.298 1.295 1.275.702-.708z"/></symbol>
<symbol id="unzip" viewBox="0 0 24 24"><path d="M10.999 6h-2.998v-1h2.998v1zm0 1h-2.998v1h2.998v-1zm0-4h-2.998v1h2.998v-1zm0 6h-2.998v1h2.998v-1zm0 2h-2.998v1h2.998v-1zm-1.499 9c-1.624 0-2.818-.922-2.425-2.5l.926-4.5h2.998l.926 4.5c.392 1.576-.799 2.5-2.425 2.5zm1.497-1.94c0-1.341-2.996-1.311-2.996.003 0 1.264 2.996 1.273 2.996-.003zm.365-16.06c4.156 0 2.638 6 2.638 6s6-1.65 6 2.457v11.543h-16v-20h7.362zm.827-2h-10.189v24h20v-14.386c0-2.391-6.648-9.614-9.811-9.614z"/></symbol>
</svg>